<?xml version="1.0" standalone="no"?>
<!DOCTYPE svg PUBLIC "-//W3C//DTD SVG 20010904//EN"
 "http://www.w3.org/TR/2001/REC-SVG-20010904/DTD/svg10.dtd">
<svg version="1.0" xmlns="http://www.w3.org/2000/svg"
 width="512.000000pt" height="512.000000pt" viewBox="0 0 512.000000 512.000000"
 preserveAspectRatio="xMidYMid meet">
<metadata>
Created by potrace 1.14, written by Peter Selinger 2001-2017
</metadata>
<g transform="translate(0.000000,512.000000) scale(0.100000,-0.100000)"
fill="#000000" stroke="none">
<path d="M2379 5116 c-2 -2 -40 -6 -83 -10 -44 -4 -82 -8 -85 -10 -3 -2 -31
-7 -61 -11 -30 -3 -75 -11 -100 -17 -25 -5 -56 -12 -70 -14 -52 -10 -236 -66
-326 -100 -678 -253 -1234 -810 -1489 -1490 -36 -95 -98 -303 -109 -361 -2
-15 -9 -53 -15 -83 -29 -158 -36 -241 -36 -455 0 -166 8 -311 20 -374 2 -10 6
-34 9 -52 5 -31 19 -102 30 -156 37 -176 124 -410 225 -603 263 -508 700 -922
1220 -1155 173 -77 417 -155 561 -179 19 -3 62 -10 95 -16 154 -25 516 -35
665 -17 319 38 588 116 854 247 596 293 1058 807 1281 1425 26 72 49 137 51
145 2 8 14 58 28 110 26 103 51 249 65 375 9 86 8 515 -1 531 -3 5 -9 34 -12
65 -3 31 -11 80 -17 110 -6 30 -15 72 -19 95 -45 219 -157 505 -283 724 -28
50 -101 164 -107 170 -3 3 -26 34 -52 70 -57 82 -192 235 -283 324 -273 265
-672 502 -1015 602 -65 19 -252 65 -280 69 -19 3 -46 8 -60 10 -14 3 -41 7
-60 10 -19 3 -53 7 -75 11 -44 6 -460 15 -466 10z"/>
</g>
</svg>
