<svg width="40" height="40" viewBox="0 0 40 40" fill="none" xmlns="http://www.w3.org/2000/svg">
<path d="M27.1096 16.7711V19.7073C27.1134 19.9064 27.06 20.1023 26.9556 20.2719C26.8512 20.4414 26.7003 20.5774 26.5209 20.6636C24.4771 21.6439 22.2504 22.1843 19.9846 22.2498C17.7207 22.1862 15.4952 21.6484 13.4521 20.6711C13.2711 20.5845 13.1189 20.4475 13.0138 20.2766C12.9087 20.1056 12.8552 19.9079 12.8596 19.7073V16.7711C12.8646 16.6365 12.9022 16.5053 12.9692 16.3885C13.0363 16.2718 13.1308 16.1732 13.2445 16.1012C13.3582 16.0292 13.4878 15.986 13.622 15.9753C13.7562 15.9646 13.8909 15.9867 14.0146 16.0398C15.8987 16.8694 17.9267 17.3229 19.9846 17.3748C22.0433 17.3252 24.0724 16.8743 25.9584 16.0473C26.0813 15.9952 26.215 15.9736 26.3481 15.9843C26.4813 15.9949 26.6098 16.0377 26.7229 16.1087C26.8359 16.1798 26.9301 16.2771 26.9975 16.3925C27.0648 16.5078 27.1033 16.6377 27.1096 16.7711Z" fill="#0066FF"/>
<path d="M34.8274 23.6487C34.675 25.4304 33.8537 27.0883 32.5287 28.2897C31.2035 29.491 29.4728 30.1467 27.6839 30.125H23.7445L16.2409 35V30.125L23.7445 25.25H27.6914C28.2499 25.2702 28.7951 25.0778 29.2172 24.7116C29.6392 24.3455 29.9065 23.833 29.965 23.2775C30.1944 19.5304 30.1756 15.7722 29.9088 12.0275C29.8636 11.528 29.6401 11.0614 29.2791 10.713C28.9182 10.3646 28.4439 10.1577 27.9428 10.13C25.3841 9.9725 22.6903 9.875 19.9927 9.875C17.2952 9.875 14.6013 9.965 12.0426 10.145C11.5416 10.1727 11.0672 10.3796 10.7063 10.728C10.3453 11.0764 10.1218 11.543 10.0766 12.0425C9.80979 15.7872 9.791 19.5454 10.0204 23.2925C10.0824 23.8453 10.3512 24.3541 10.7729 24.7172C11.1945 25.0802 11.7378 25.2705 12.294 25.25H16.2409V30.125H12.3015C10.5146 30.1428 8.78705 29.4849 7.46506 28.2831C6.14307 27.0814 5.32435 25.4247 5.17301 23.645C4.92487 19.6482 4.94367 15.6393 5.22928 11.645C5.3711 9.98861 6.10046 8.4374 7.28581 7.27119C8.47115 6.10499 10.0344 5.40057 11.6937 5.285C14.365 5.09375 17.1788 5 19.9927 5C22.8065 5 25.6204 5.09375 28.2917 5.285C29.956 5.3976 31.5248 6.10263 32.7135 7.27223C33.9022 8.44183 34.6323 9.99854 34.7711 11.66C35.0562 15.6506 35.075 19.6557 34.8274 23.6487Z" fill="#0066FF"/>
</svg>
