<svg xmlns="http://www.w3.org/2000/svg" width="86" height="24"><g fill="#1972f5" fill-rule="evenodd"><path d="M44.73 17.71a5.1 5.1 0 004.33-2.01l-1.62-1.52a3.04 3.04 0 01-2.6 1.35c-2.03 0-3.41-1.56-3.41-3.77 0-2.2 1.38-3.74 3.41-3.74a3 3 0 012.6 1.3l1.62-1.47a5.04 5.04 0 00-4.33-2c-3.42 0-5.83 2.5-5.83 5.91 0 3.42 2.4 5.95 5.83 5.95zm8.64-.28v-7.7c.5-.82 1.87-1.52 2.93-1.52.3 0 .54.02.75.07V5.84a4.9 4.9 0 00-3.68 1.92V6.12h-2.46v11.31zm6.58-12.69a1.52 1.52 0 100-3.04 1.52 1.52 0 100 3.04zm1.22 12.7V6.11H58.7v11.31zm6.75.27c3.04 0 4.7-1.52 4.7-3.53 0-4.5-6.84-3-6.84-5 0-.79.8-1.4 2.09-1.4 1.43 0 2.67.61 3.35 1.36l1.03-1.73a6.46 6.46 0 00-4.38-1.57c-2.86 0-4.45 1.57-4.45 3.42 0 4.35 6.84 2.76 6.84 4.99 0 .89-.78 1.5-2.25 1.5a5.8 5.8 0 01-3.82-1.57l-1.12 1.75a6.85 6.85 0 004.85 1.78zm12.92 0c-1.43 0-2.69-.65-3.63-1.85v5.88h-2.45V6.12h2.45v1.55a4.51 4.51 0 013.63-1.83c2.93 0 5.01 2.2 5.01 5.92 0 3.73-2.08 5.95-5 5.95zm-.72-2.18c1.94 0 3.2-1.56 3.2-3.77 0-2.2-1.26-3.74-3.2-3.74-1.15 0-2.34.65-2.9 1.5v4.47a3.69 3.69 0 002.9 1.54z"/><path d="M11.57 18.99l4.63 4.92 3.62-5.84 9.6-1.05L27.87.16.14 3.22 1.7 20.08z"/></g></svg>