<svg width="50" height="50" viewBox="0 0 50 50" fill="none" xmlns="http://www.w3.org/2000/svg">
<path d="M8.19922 27.4984C8.69922 31.0984 10.3992 34.3984 12.9992 36.9984L18.7992 31.1984C18.7992 25.0984 21.9992 19.4984 27.2992 16.3984L8.19922 27.4984Z" fill="#9B65C3"/>
<path d="M18.7992 31.2C15.7992 31.2 12.8992 30.4 10.2992 28.9C9.59922 28.5 8.89922 28 8.19922 27.5C8.69922 31.1 10.3992 34.4 12.9992 37L18.7992 31.2Z" fill="#9B65C3"/>
<path d="M18.8 31.1992L13 36.9992C15.6 39.5992 18.9 41.2992 22.5 41.7992L33.5 22.6992C30.5 27.8992 24.9 31.1992 18.8 31.1992V31.1992Z" fill="#BE63C5"/>
<path d="M21.1 39.6992C19.6 37.0992 18.8 34.1992 18.8 31.1992L13 36.9992C15.6 39.5992 18.9 41.2992 22.5 41.7992C22 41.0992 21.5 40.3992 21.1 39.6992V39.6992Z" fill="#BF63C6"/>
<path d="M40.5 8.79688L27.3 16.3969C22 19.3969 15.6 19.3969 10.3 16.3969C8.8 18.9969 8 21.9969 8 24.9969C8 25.7969 8.1 26.6969 8.2 27.4969C8.9 27.9969 9.6 28.4969 10.3 28.8969C12.9 30.3969 15.8 31.1969 18.8 31.1969L40.8 9.19687C40.7 9.09687 40.6 8.99688 40.5 8.79688V8.79688Z" fill="#3278B1"/>
<path d="M10.2992 28.8984C12.8992 30.3984 15.7992 31.1984 18.7992 31.1984C18.7992 25.0984 21.9992 19.4984 27.2992 16.3984L8.19922 27.3984C8.89922 27.9984 9.59922 28.4984 10.2992 28.8984V28.8984Z" fill="#3278B2"/>
<path d="M10.3 16.3984C8.8 18.9984 8 21.9984 8 24.9984C8 25.7984 8.1 26.6984 8.2 27.4984L27.3 16.3984C22.1 19.4984 15.6 19.4984 10.3 16.3984V16.3984Z" fill="#45A4EC"/>
<path d="M40.8008 9.19844C40.5008 8.89844 40.3008 8.69844 40.0008 8.49844C39.4008 8.09844 38.6008 7.89844 37.9008 7.89844H25.0008C18.9008 7.89844 13.3008 11.1984 10.3008 16.3984C15.6008 19.3984 22.0008 19.3984 27.3008 16.3984C22.0008 19.3984 18.8008 25.0984 18.8008 31.1984C24.9008 31.1984 30.5008 27.9984 33.6008 22.6984L41.2008 9.49844C41.0008 9.39844 40.9008 9.29844 40.8008 9.19844V9.19844Z" fill="#19BB7D"/>
<path d="M27.3008 16.3984L40.5008 8.79844C40.3008 8.69844 40.2008 8.49844 40.0008 8.39844L10.3008 16.3984C15.6008 19.4984 22.1008 19.4984 27.3008 16.3984Z" fill="#08C7FB"/>
<path d="M37.8008 7.89844H25.0008C18.9008 7.89844 13.3008 11.1984 10.3008 16.3984L40.0008 8.39844C39.3008 8.09844 38.6008 7.89844 37.8008 7.89844Z" fill="#59F2F6"/>
<path d="M33.5984 22.6977L41.1984 9.49766C41.0984 9.39766 40.9984 9.29766 40.8984 9.09766L18.8984 31.0977C18.8984 34.0977 19.6984 36.9977 21.1984 39.5977C21.5984 40.2977 22.0984 40.9977 22.5984 41.6977C23.3984 41.7977 24.1984 41.8977 24.9984 41.8977C27.9984 41.8977 30.8984 41.0977 33.4984 39.5977C30.4984 34.3977 30.4984 27.8977 33.5984 22.6977V22.6977Z" fill="#DA3757"/>
<path d="M18.8008 31.1992C18.8008 34.1992 19.6008 37.0992 21.1008 39.6992C21.5008 40.3992 22.0008 41.0992 22.5008 41.7992L33.5008 22.6992C30.5008 27.8992 24.9008 31.1992 18.8008 31.1992V31.1992Z" fill="#D33C4E"/>
<path d="M33.6016 22.6992L22.6016 41.7992C23.4016 41.8992 24.2016 41.9992 25.1016 41.9992C28.1016 41.9992 31.0016 41.1992 33.6016 39.6992C30.5016 34.3992 30.5016 27.8992 33.6016 22.6992V22.6992Z" fill="#EE5A24"/>
<path d="M41.5008 9.99687C41.2008 9.49687 40.9008 9.09688 40.5008 8.79688L27.3008 16.3969C22.0008 19.3969 18.8008 25.0969 18.8008 31.1969C24.9008 31.1969 30.5008 27.9969 33.6008 22.6969C30.6008 27.9969 30.6008 34.3969 33.6008 39.6969C38.8008 36.6969 42.1008 31.0969 42.1008 25.0969V12.1969C42.1008 11.3969 41.9008 10.6969 41.5008 9.99687V9.99687Z" fill="#8BDF55"/>
<path d="M40.5008 8.79688L27.3008 16.3969C22.0008 19.3969 18.8008 25.0969 18.8008 31.1969L40.8008 9.19687C40.7008 9.09687 40.6008 8.89688 40.5008 8.79688V8.79688Z" fill="#25C16F"/>
<path d="M18.8008 31.1977C24.9008 31.1977 30.5008 27.9977 33.6008 22.6977L41.2008 9.49766C41.1008 9.39766 41.0008 9.29766 40.9008 9.09766L18.8008 31.1977Z" fill="#8BDF55"/>
<path d="M41.2016 9.5L33.6016 22.7C30.6016 28 30.6016 34.4 33.6016 39.7L41.6016 10C41.4016 9.8 41.3016 9.7 41.2016 9.5V9.5Z" fill="#FFBB00"/>
<path d="M33.6016 39.7C38.9016 36.7 42.1016 31.1 42.1016 25V12.2C42.1016 11.4 41.9016 10.7 41.5016 10L33.6016 39.7V39.7Z" fill="#FFA800"/>
</svg>
