<svg width="139" height="167" viewBox="0 0 139 167" fill="none" xmlns="http://www.w3.org/2000/svg">
<g clip-path="url(#clip0_3_2)">
<path fill-rule="evenodd" clip-rule="evenodd" d="M58.746 49.236L10.544 98.473C4.52 92.318 0.754 83.856 0 73.854C0 64.623 4.519 55.391 10.544 49.236L59.5 0C65.525 6.155 69.29 15.386 69.29 24.618C69.29 33.85 64.772 43.082 58.747 49.236H58.746ZM79.95 117.41L128.68 68.173C134.772 75.097 138.58 83.56 138.58 92.791C138.58 102.023 134.01 111.255 127.92 117.41L79.188 166.646C73.097 160.491 69.29 151.259 69.29 142.028C69.29 132.796 73.858 123.564 79.95 117.41V117.41ZM78.755 49.236L93.143 34.844L128.735 0C134.793 6.06 138.579 15.15 138.579 24.24C138.579 33.33 134.036 42.419 127.977 48.479L93.143 83.323L78.755 97.715L58.31 118.167L43.922 132.559L9.845 166.646C3.786 160.586 0 151.496 0 142.406C0 133.316 4.544 124.226 10.602 118.167L44.679 84.08L58.309 69.688L78.755 49.236Z" fill="#1292EE"/>
</g>
<defs>
<clipPath id="clip0_3_2">
<rect width="139" height="167" fill="white"/>
</clipPath>
</defs>
</svg>
