<svg width="47" height="47" viewBox="0 0 47 47" fill="none" xmlns="http://www.w3.org/2000/svg">
<path d="M16.2 34.7C21.1916 35.1101 26.2084 35.1101 31.2 34.7C34.4 34.4 37 31.6 37.2 28V27.8C37.4 26 37.4 25.2 37.4 23.4V19.9L33 23.8L32.9 27.3V27.8C32.8 29.1 31.9 30.2 30.9 30.3C26.1 30.7 21.3 30.6 16.5 30.3C15.5 30.2 14.7 29.1 14.6 27.7V27.3L14.4 23.3C14.4 21.6 14.4 19.8 14.6 18C14.7 16.7 15.6 15.6 16.5 15.5H30.7L23.9 21.5L21 18.6L17.7 21.6L23.9 27.3L37.4 15.3V11H16.2C13 11.3 10.4 14 10.2 17.7L10 23.4C10 25.2 10 26 10.2 27.8V28C10.4 31.6 13 34.4 16.2 34.7Z" fill="#38C776"/>
<path d="M16.1999 34.7C21.1914 35.1101 26.2083 35.1101 31.1999 34.7C34.3999 34.5 36.9999 31.7 37.1999 28.1V27.8C37.3999 26.1 37.3999 25.2 37.3999 23.4V20L32.9999 23.8L32.8999 27.3V27.8C32.7999 29.1 31.8999 30.2 30.8999 30.3C26.0999 30.7 21.2999 30.7 16.4999 30.3C15.4999 30.2 14.6999 29.1 14.5999 27.8C14.5372 26.3332 14.4705 24.8665 14.3999 23.4C14.3999 21.6 14.3999 19.8 14.5999 18C14.6999 16.7 15.5999 15.6 16.4999 15.5H30.6999L23.8999 21.5L20.9999 18.6L17.6999 21.6L23.8999 27.3L37.3999 15.3V11H16.1999C12.9999 11.3 10.3999 14 10.1999 17.7C9.98026 21.1298 9.98026 24.5702 10.1999 28C10.3999 31.6 12.9999 34.4 16.1999 34.7Z" fill="#2FC774"/>
</svg>
