<svg width="16" height="19" viewBox="0 0 16 19" fill="none" xmlns="http://www.w3.org/2000/svg">
<g clip-path="url(#clip0_12_75)">
<path d="M6.68018 7.4576C8.7842 6.28872 11.6658 4.68749 11.6658 0.0273438H8.17653C8.17653 2.63471 6.90715 3.33991 4.98564 4.40744C2.88163 5.57675 0 7.17728 0 11.8379H3.48929C3.48929 9.23034 4.75867 8.52514 6.68018 7.4576Z" fill="#FF3C00"/>
<path d="M12.7195 6.38672C12.7195 8.99422 11.4501 9.69942 9.52861 10.7668C7.42516 11.9357 4.54297 13.5367 4.54297 18.1972H8.03212C8.03212 15.5897 9.3015 14.8845 11.223 13.817C13.327 12.6481 16.2085 11.0473 16.2085 6.38672H12.7195Z" fill="#FF3C00"/>
</g>
<defs>
<clipPath id="clip0_12_75">
<rect width="16" height="19" fill="white"/>
</clipPath>
</defs>
</svg>
