<svg width="54" height="54" viewBox="0 0 54 54" fill="none" xmlns="http://www.w3.org/2000/svg">
<path d="M40.171 28.8101C40.171 29.131 40.0448 29.4388 39.8203 29.6657C39.5957 29.8926 39.2912 30.0201 38.9736 30.0201C38.6561 30.0201 38.3515 29.8926 38.1269 29.6657C37.9024 29.4388 37.7762 29.131 37.7762 28.8101V18.0001C37.7762 17.6792 37.9024 17.3714 38.1269 17.1445C38.3515 16.9176 38.6561 16.7901 38.9736 16.7901C39.2912 16.7901 39.5957 16.9176 39.8203 17.1445C40.0448 17.3714 40.171 17.6792 40.171 18.0001V28.8101ZM39.7554 36.3001C39.597 36.4601 35.144 40.2101 26.9802 40.2101C18.8164 40.2101 14.3931 36.4801 14.2051 36.3201C14.0866 36.2191 13.989 36.0955 13.9179 35.9564C13.8467 35.8172 13.8035 35.6652 13.7906 35.5092C13.7778 35.3531 13.7955 35.196 13.8429 35.0468C13.8902 34.8977 13.9662 34.7595 14.0665 34.6401C14.2732 34.3985 14.566 34.2492 14.8811 34.2248C15.1963 34.2005 15.5081 34.303 15.7488 34.5101C15.818 34.5601 19.796 37.8201 26.9703 37.8201C34.1446 37.8201 38.1523 34.5401 38.1919 34.5101C38.4352 34.3049 38.7481 34.2037 39.064 34.2279C39.38 34.2522 39.6742 34.4001 39.884 34.6401C40.0859 34.8781 40.1867 35.1871 40.1644 35.4998C40.1422 35.8125 39.9987 36.1037 39.7653 36.3101L39.7554 36.3001ZM13.7796 18.0001C13.7974 17.6782 13.9407 17.3765 14.1781 17.161C14.4154 16.9455 14.7275 16.8337 15.0462 16.8501C15.3416 16.8671 15.6203 16.9939 15.8286 17.2063C16.0369 17.4186 16.1601 17.7014 16.1743 18.0001V28.7901C16.1743 29.111 16.0481 29.4188 15.8236 29.6457C15.599 29.8726 15.2945 30.0001 14.9769 30.0001C14.6594 30.0001 14.3548 29.8726 14.1302 29.6457C13.9057 29.4188 13.7796 29.111 13.7796 28.7901V18.0001ZM19.7861 15.6001C19.804 15.2782 19.9473 14.9765 20.1847 14.761C20.422 14.5455 20.7341 14.4337 21.0528 14.4501C21.3482 14.467 21.6269 14.5939 21.8352 14.8063C22.0435 15.0187 22.1667 15.3014 22.1809 15.6001V31.6001C22.1809 31.921 22.0547 32.2288 21.8302 32.4557C21.6056 32.6826 21.3011 32.8101 20.9835 32.8101C20.6659 32.8101 20.3614 32.6826 20.1368 32.4557C19.9123 32.2288 19.7861 31.921 19.7861 31.6001V15.6001ZM25.8224 15.0001C25.8224 14.6792 25.9486 14.3714 26.1731 14.1445C26.3977 13.9176 26.7022 13.7901 27.0198 13.7901C27.3373 13.7901 27.6419 13.9176 27.8665 14.1445C28.091 14.3714 28.2172 14.6792 28.2172 15.0001V32.4001C28.2172 32.721 28.091 33.0288 27.8665 33.2557C27.6419 33.4826 27.3373 33.6101 27.0198 33.6101C26.7022 33.6101 26.3977 33.4826 26.1731 33.2557C25.9486 33.0288 25.8224 32.721 25.8224 32.4001V15.0001ZM31.7598 15.6001C31.7598 15.2792 31.8859 14.9714 32.1105 14.7445C32.335 14.5176 32.6396 14.3901 32.9571 14.3901C33.2747 14.3901 33.5792 14.5176 33.8038 14.7445C34.0283 14.9714 34.1545 15.2792 34.1545 15.6001V31.6001C34.1545 31.921 34.0283 32.2288 33.8038 32.4557C33.5792 32.6826 33.2747 32.8101 32.9571 32.8101C32.6396 32.8101 32.335 32.6826 32.1105 32.4557C31.8859 32.2288 31.7598 31.921 31.7598 31.6001V15.6001ZM40.4975 9.0001H13.5025C12.9143 8.99615 12.3311 9.10948 11.7863 9.33362C11.2415 9.55775 10.7458 9.88827 10.3275 10.3063C9.9093 10.7243 9.57677 11.2215 9.34897 11.7696C9.12118 12.3176 9.00259 12.9057 9 13.5001V40.5001C9.00259 41.0945 9.12118 41.6826 9.34897 42.2306C9.57677 42.7787 9.9093 43.2759 10.3275 43.6939C10.7458 44.1119 11.2415 44.4425 11.7863 44.6666C12.3311 44.8907 12.9143 45.0041 13.5025 45.0001H40.4975C41.0849 45.0041 41.6673 44.891 42.2115 44.6675C42.7556 44.444 43.2509 44.1144 43.669 43.6975C44.0871 43.2805 44.4198 42.7845 44.6482 42.2376C44.8766 41.6907 44.9961 41.1037 45 40.5101V13.5001C44.9974 12.9065 44.8791 12.3193 44.652 11.7719C44.4248 11.2245 44.0931 10.7277 43.676 10.3098C43.2588 9.89196 42.7643 9.56122 42.2206 9.3365C41.6769 9.11178 41.0948 8.99747 40.5074 9.0001" fill="black"/>
</svg>
