<svg width="42" height="42" viewBox="0 0 42 42" fill="none" xmlns="http://www.w3.org/2000/svg">
<path d="M28.9748 11.1505C23.8613 10.7832 18.1655 10.7832 13.0519 11.1505C11.9815 11.2274 11.1704 12.047 11.0899 13.0489C10.8318 16.2618 10.7975 21.0754 11.0342 24.2851C11.1123 25.3453 12.0432 26.2553 13.3024 26.2553H17.25V31.125L13.3105 31.1222C9.69648 31.1222 6.45258 28.4435 6.17237 24.6436C5.91726 21.1842 5.9525 16.1202 6.2306 12.6585C6.5093 9.18919 9.29904 6.53248 12.7026 6.288C18.0488 5.904 23.978 5.904 29.3241 6.288C32.7277 6.53248 35.5175 9.18919 35.7962 12.6585C36.0743 16.1202 36.0621 21.1842 35.807 24.6436C35.5268 28.4435 32.2904 31.1331 28.6764 31.1331L24.7776 31.1303L17.25 36V31.125L24.7776 26.2553H28.677C29.9362 26.2553 30.867 25.3453 30.9452 24.2851C31.1819 21.0754 31.1949 16.2618 30.9368 13.0489C30.8563 12.047 30.0453 11.2274 28.9748 11.1505Z" fill="#FE5000"/>
</svg>
