<svg width="34" height="34" viewBox="0 0 34 34" fill="none" xmlns="http://www.w3.org/2000/svg">
<path d="M13.787 4.62C14.688 3.18044 15.8823 1.94697 17.292 1C18.6833 1.92496 19.8626 3.13457 20.752 4.54898C23.0992 7.80458 24.2834 11.755 24.114 15.765C24.844 16.354 25.596 16.919 26.314 17.519C26.8199 17.97 27.2018 18.5431 27.4234 19.1837C27.645 19.8242 27.6989 20.5107 27.58 21.178C27.233 22.85 26.901 24.525 26.535 26.193C26.4663 26.3986 26.3506 26.5854 26.197 26.7384C26.0435 26.8914 25.8563 27.0065 25.6505 27.0745C25.4446 27.1425 25.2257 27.1615 25.0112 27.1299C24.7968 27.0984 24.5926 27.0173 24.415 26.893C23.237 25.947 22.089 24.968 20.915 24.021C20.0092 24.8696 18.8375 25.3784 17.599 25.461C16.8915 25.4954 16.1843 25.3895 15.518 25.1492C14.8517 24.9089 14.2396 24.5391 13.717 24.061C12.873 24.682 12.089 25.428 11.264 26.094C10.9025 26.449 10.4996 26.7593 10.064 27.018C9.88469 27.0876 9.69292 27.1194 9.50075 27.1112C9.30858 27.1031 9.12018 27.0552 8.94742 26.9706C8.77466 26.8861 8.62129 26.7667 8.49695 26.6199C8.37261 26.4732 8.28001 26.3023 8.22498 26.118C7.84798 24.487 7.45398 22.861 7.08898 21.228C6.94936 20.5316 6.99962 19.8104 7.2345 19.1401C7.46938 18.4698 7.88022 17.875 8.42398 17.418C9.06498 16.901 9.71398 16.393 10.367 15.891C10.549 15.799 10.458 15.591 10.467 15.431C10.3802 11.5644 11.547 7.77356 13.793 4.625L13.787 4.62ZM14.949 9.67398C14.5366 10.2051 14.3332 10.8691 14.3775 11.5401C14.4217 12.2111 14.7104 12.8426 15.189 13.315C15.7385 13.8514 16.4714 14.1587 17.2392 14.1744C18.0069 14.1902 18.7519 13.9134 19.323 13.4C19.735 13.0287 20.025 12.5415 20.1551 12.0023C20.2852 11.4632 20.2493 10.8973 20.052 10.379C19.8513 9.87793 19.5157 9.4422 19.0826 9.12009C18.6495 8.79797 18.1356 8.60204 17.598 8.55399C17.0978 8.50209 16.5925 8.57747 16.1292 8.7731C15.6659 8.96873 15.2596 9.27829 14.948 9.673" fill="#764ABC"/>
<path d="M13.3786 27.4797C13.3868 27.3636 13.4243 27.2514 13.4873 27.1535C13.5504 27.0557 13.6371 26.9753 13.7394 26.9198C13.8418 26.8643 13.9564 26.8354 14.0729 26.8359C14.1893 26.8365 14.3037 26.8663 14.4056 26.9227C15.3051 27.3576 16.2914 27.5835 17.2906 27.5835C18.2898 27.5835 19.276 27.3576 20.1756 26.9227C20.2748 26.8684 20.3858 26.839 20.499 26.837C20.6121 26.8349 20.7241 26.8604 20.8253 26.9111C20.9264 26.9618 21.0138 27.0364 21.0798 27.1282C21.1459 27.2201 21.1887 27.3267 21.2046 27.4387C21.2099 28.4601 21.2099 29.4814 21.2046 30.5027C21.1925 30.6221 21.1496 30.7363 21.08 30.8341C21.0104 30.9319 20.9165 31.0098 20.8076 31.0603C20.6987 31.1107 20.5785 31.132 20.4589 31.1219C20.3393 31.1118 20.2245 31.0707 20.1256 31.0027C19.8196 30.7427 19.5436 30.4507 19.2496 30.1777C18.7826 31.0517 18.3446 31.9377 17.8746 32.8087C17.8111 32.9042 17.7251 32.9826 17.6242 33.0371C17.5233 33.0915 17.4106 33.1203 17.2959 33.121C17.1813 33.1217 17.0682 33.0943 16.9667 33.041C16.8651 32.9878 16.7782 32.9104 16.7136 32.8157C16.2416 31.9427 15.8056 31.0517 15.3296 30.1787C15.0396 30.4537 14.7636 30.7447 14.4566 31.0037C14.3572 31.0713 14.2419 31.1118 14.1221 31.1213C14.0024 31.1309 13.8821 31.109 13.7734 31.0579C13.6646 31.0069 13.5709 30.9284 13.5017 30.8301C13.4325 30.7319 13.3901 30.6173 13.3786 30.4977C13.3706 29.4907 13.3786 28.4827 13.3786 27.4757" fill="#764ABC"/>
<path d="M17.2708 12.769C17.4554 12.7733 17.6389 12.741 17.8109 12.674C17.9829 12.6071 18.14 12.5068 18.2731 12.3789C18.4062 12.251 18.5126 12.0981 18.5864 11.9289C18.6602 11.7597 18.6997 11.5776 18.7029 11.393C18.6999 11.2084 18.6604 11.0262 18.5867 10.8568C18.513 10.6875 18.4065 10.5345 18.2734 10.4065C18.1403 10.2785 17.9832 10.1781 17.8111 10.1111C17.6391 10.0441 17.4554 10.0118 17.2708 10.016C17.0863 10.0119 16.9028 10.0443 16.7309 10.1114C16.5589 10.1785 16.4019 10.2789 16.2689 10.4069C16.1359 10.5348 16.0296 10.6878 15.9559 10.8571C15.8823 11.0263 15.8428 11.2085 15.8398 11.393C15.843 11.5775 15.8825 11.7595 15.9562 11.9286C16.0299 12.0977 16.1363 12.2506 16.2693 12.3785C16.4023 12.5064 16.5592 12.6067 16.7311 12.6737C16.903 12.7407 17.0864 12.7731 17.2708 12.769" fill="#764ABC"/>
</svg>
